<svg xmlns="http://www.w3.org/2000/svg" width="520" height="360" viewBox="0 0 520 360" role="img" aria-labelledby="t d"><title id="t">Alex Vicente technology radar</title><desc id="d">Radar chart showing primary technology areas: React and Next.js, PHP and Laravel, WebGPU and AI, SQL and delivery tooling.</desc><rect width="520" height="360" rx="20" fill="#ffffff"/><g transform="translate(260 178)" fill="none" stroke="#d8dee5"><polygon points="0,-120 114,-37 71,97 -71,97 -114,-37"/><polygon points="0,-90 85,-28 53,73 -53,73 -85,-28"/><polygon points="0,-60 57,-19 35,49 -35,49 -57,-19"/><polygon points="0,-30 28,-9 18,24 -18,24 -28,-9"/><path d="M0 0V-120M0 0L114-37M0 0L71 97M0 0L-71 97M0 0L-114,-37"/></g><polygon points="260,64 338,153 307,242 214,236 169,149" fill="#2f8fb5" fill-opacity=".10" stroke="#2f8fb5" stroke-width="3"/><g fill="#2f8fb5"><circle cx="260" cy="64" r="5"/><circle cx="338" cy="153" r="5"/><circle cx="307" cy="242" r="5"/><circle cx="214" cy="236" r="5"/><circle cx="169" cy="149" r="5"/></g><g fill="#425066" font-family="ui-monospace,SFMono-Regular,Menlo,Consolas,monospace" font-size="14"><text x="260" y="28" text-anchor="middle">React / Next / JS</text><text x="385" y="145">PHP / Laravel</text><text x="325" y="305">SQL / Data</text><text x="135" y="305">DevOps / QA</text><text x="35" y="145">WebGPU / AI</text></g><text x="28" y="332" fill="#697586" font-family="ui-monospace,SFMono-Regular,Menlo,Consolas,monospace" font-size="12">current working stack · not a proficiency score</text></svg>